<svg width="24" height="24" viewBox="0 0 24 24" fill="none" xmlns="http://www.w3.org/2000/svg">
<path fill-rule="evenodd" clip-rule="evenodd" d="M15.2502 17.6493C15.4752 17.4242 15.6016 17.1191 15.6016 16.8009C15.6016 16.4827 15.4752 16.1775 15.2502 15.9525L11.2986 12.0009L15.2502 8.04928C15.4688 7.82296 15.5898 7.51983 15.587 7.2052C15.5843 6.89056 15.4581 6.58959 15.2356 6.3671C15.0131 6.14461 14.7121 6.0184 14.3975 6.01567C14.0829 6.01294 13.7797 6.13389 13.5534 6.35248L8.75342 11.1525C8.52845 11.3775 8.40207 11.6827 8.40207 12.0009C8.40207 12.3191 8.52845 12.6242 8.75342 12.8493L13.5534 17.6493C13.7785 17.8742 14.0836 18.0006 14.4018 18.0006C14.72 18.0006 15.0252 17.8742 15.2502 17.6493Z" fill="white"/>
</svg>
